<?xml version="1.0" encoding="iso-8859-1"?>
<!-- Generator: Adobe Illustrator 19.0.0, SVG Export Plug-In . SVG Version: 6.00 Build 0)  -->
<svg version="1.1" id="Capa_1" xmlns="http://www.w3.org/2000/svg" xmlns:xlink="http://www.w3.org/1999/xlink" x="0px" y="0px"
	 viewBox="0 0 512 512" style="enable-background:new 0 0 512 512;" xml:space="preserve">
<g>
	<g>
		<path d="M460.425,109.764h-111.01V89.219c0-26.237-21.345-47.583-47.582-47.583h-78.609c-26.237,0-47.582,21.346-47.582,47.583
			v20.544H51.575C23.136,109.764,0,132.9,0,161.338v257.452c0,28.438,23.136,51.575,51.575,51.575h408.85
			c28.438,0,51.575-23.137,51.575-51.575V161.338C512,132.9,488.863,109.764,460.425,109.764z M205.655,89.219
			c0-9.688,7.881-17.57,17.569-17.57h78.609c9.688,0,17.569,7.882,17.569,17.57v20.544H205.655V89.219z M70.856,440.35H51.575
			c-11.89,0.001-21.562-9.672-21.562-21.561V161.338c0-11.889,9.672-21.562,21.562-21.562h19.281V440.35z M413.233,440.351H100.869
			V139.776h312.365V440.351z M481.987,418.789c0,11.889-9.673,21.562-21.562,21.562h-17.179V139.776h17.179
			c11.889,0,21.562,9.673,21.562,21.562V418.789z"/>
	</g>
</g>
<g>
</g>
<g>
</g>
<g>
</g>
<g>
</g>
<g>
</g>
<g>
</g>
<g>
</g>
<g>
</g>
<g>
</g>
<g>
</g>
<g>
</g>
<g>
</g>
<g>
</g>
<g>
</g>
<g>
</g>
</svg>
